<svg version="1.1" xmlns="http://www.w3.org/2000/svg" xmlns:xlink="http://www.w3.org/1999/xlink" width="479.341" height="134.41445" viewBox="0,0,479.341,134.41445"><defs><linearGradient x1="203.93472" y1="205.67044" x2="297.31177" y2="205.67044" gradientUnits="userSpaceOnUse" id="color-1"><stop offset="0" stop-color="#0c59a4"/><stop offset="1" stop-color="#114a8b"/></linearGradient><radialGradient cx="255.49099" cy="206.37443" r="49.93369" gradientUnits="userSpaceOnUse" id="color-2"><stop offset="0.7" stop-color="#000000" stop-opacity="0"/><stop offset="0.9" stop-color="#000000" stop-opacity="0.5"/><stop offset="1" stop-color="#000000"/></radialGradient><linearGradient x1="253.13563" y1="165.1582" x2="194.87966" y2="228.64831" gradientUnits="userSpaceOnUse" id="color-3"><stop offset="0" stop-color="#1b9de2"/><stop offset="0.2" stop-color="#1595df"/><stop offset="0.7" stop-color="#0680d7"/><stop offset="1" stop-color="#0078d4"/></linearGradient><radialGradient cx="210.13979" cy="217.15257" r="75.05025" gradientUnits="userSpaceOnUse" id="color-4"><stop offset="0.8" stop-color="#000000" stop-opacity="0"/><stop offset="0.9" stop-color="#000000" stop-opacity="0.5"/><stop offset="1" stop-color="#000000"/></radialGradient><radialGradient cx="186.76151" cy="137.79202" r="106.0237" gradientUnits="userSpaceOnUse" id="color-5"><stop offset="0" stop-color="#35c1f1"/><stop offset="0.1" stop-color="#34c1ed"/><stop offset="0.2" stop-color="#2fc2df"/><stop offset="0.3" stop-color="#2bc3d2"/><stop offset="0.7" stop-color="#36c752"/></radialGradient><radialGradient cx="298.86108" cy="153.48607" r="50.92818" gradientUnits="userSpaceOnUse" id="color-6"><stop offset="0" stop-color="#66eb6e"/><stop offset="1" stop-color="#66eb6e" stop-opacity="0"/></radialGradient><linearGradient x1="401.73863" y1="115.38542" x2="401.73863" y2="244.85283" gradientUnits="userSpaceOnUse" id="color-7"><stop offset="0" stop-color="#ff1b2d"/><stop offset="0.3" stop-color="#ff1b2d"/><stop offset="0.614" stop-color="#ff1b2d"/><stop offset="1" stop-color="#a70014"/></linearGradient><linearGradient x1="435.27894" y1="123.01764" x2="435.27894" y2="237.52457" gradientUnits="userSpaceOnUse" id="color-8"><stop offset="0" stop-color="#9c0000"/><stop offset="0.7" stop-color="#ff4b4b"/><stop offset="1" stop-color="#ff4b4b"/></linearGradient></defs><g transform="translate(-0.3295,-112.79277)"><g data-paper-data="{&quot;isPaintingLayer&quot;:true}" fill-rule="nonzero" stroke="none" stroke-width="1" stroke-linecap="butt" stroke-linejoin="miter" stroke-miterlimit="10" stroke-dasharray="" stroke-dashoffset="0" style="mix-blend-mode: normal"><path d="M33.93311,179.99645c0,-18.55977 15.04525,-33.60573 33.60502,-33.60573c18.55977,0 33.60502,15.04595 33.60502,33.60573c0,18.55977 -15.04525,33.60572 -33.60502,33.60572c-18.55977,0 -33.60501,-15.04595 -33.60501,-33.60572z" fill="#ffffff"/><path d="M38.43475,196.80849c2.94891,5.10989 7.19129,9.35324 12.30051,12.30333c10.39894,6.00381 23.21137,6.00193 33.60855,-0.00493c5.10845,-2.95147 9.34974,-7.1963 12.29698,-12.30757v0.00777l-29.09844,50.40013c-11.79743,0.00353 -23.3881,-3.09965 -33.60572,-8.99624c-10.21762,-5.8966 -18.70301,-14.38058 -24.60243,-24.59678c-5.89942,-10.2162 -9.0047,-21.80548 -9.0047,-33.60361c0,-11.79812 3.1067,-23.3874 9.00682,-33.6036l29.09843,50.40013z" fill="#229342"/><path d="M96.63938,196.80566c6.00583,-10.3981 6.00609,-23.21089 0.0007,-33.60925c-2.95077,-5.10916 -7.19417,-9.35045 -12.30474,-12.29909c-5.11026,-2.94816 -10.9067,-4.49881 -16.80639,-4.496l0.00705,-0.00494h58.19616c5.90154,10.2155 9.00965,21.80478 9.01177,33.6022c0.00188,11.79746 -3.10206,23.38752 -8.99977,33.60501c-5.898,10.21761 -14.38198,18.7023 -24.59889,24.60032c-10.2169,5.89801 -21.80689,9.00329 -33.60431,9.00118l29.09772,-50.40012z" fill="#fbc116"/><path d="M40.93394,180.0035c0,-14.69315 11.91103,-26.60418 26.60418,-26.60418c14.69316,0 26.60419,11.91032 26.60419,26.60418c0,14.69386 -11.91103,26.60488 -26.60418,26.60488c-14.69316,0 -26.60418,-11.91173 -26.60418,-26.60488z" fill="#1a73e8"/><path d="M67.53953,146.39778c-5.90012,-0.00142 -11.69652,1.55159 -16.80568,4.50095c-5.10916,2.94935 -9.35256,7.19276 -12.30121,12.30263c-6.00234,10.40012 -5.9983,23.21291 0.01058,33.60925l-0.00776,-0.00423l-29.09843,-50.40012c5.8958,-10.21858 14.37808,-18.70476 24.59396,-24.60525c10.2155,-5.90082 21.80478,-9.00753 33.6022,-9.00824c11.79735,-0.0009 23.38701,3.10428 33.60361,9.0033c10.2169,5.89942 18.70018,14.38481 24.59748,24.60242h-58.19615z" fill="#e33b2e"/><path d="M296.6735,213.14666c0.64704,0.68366 0.75827,1.71508 0.27188,2.52098c-8.1425,12.905 -20.43722,22.65218 -34.85937,27.63626l-0.68044,0.20937c-3.76858,1.20385 -9.99721,2.4077 -14.13218,2.4077c-7.69419,0 -43.33868,-3.87326 -43.33868,-42.6059c0,-13.6611 5.75755,-37.00537 28.15967,-37.94751c-5.23572,2.85935 -8.51848,8.32394 -8.58399,14.2892c0,21.8787 21.56466,38.88966 46.32214,38.88966c6.41399,0.02232 12.77942,-1.11246 18.79056,-3.34985c1.89841,-0.70469 3.75135,-1.52628 5.54819,-2.46005c0.83143,-0.44132 1.85517,-0.27352 2.50221,0.41014z" fill="url(#color-1)"/><path d="M296.6735,213.14666c0.64704,0.68366 0.75827,1.71508 0.27188,2.52098c-8.1425,12.905 -20.43722,22.65218 -34.85937,27.63626l-0.68044,0.20937c-3.76858,1.20385 -9.99721,2.4077 -14.13218,2.4077c-7.69419,0 -43.33868,-3.87326 -43.33868,-42.6059c0,-13.6611 5.75755,-37.00537 28.15967,-37.94751c-5.23572,2.85935 -8.51848,8.32394 -8.58399,14.2892c0,21.8787 21.56466,38.88966 46.32214,38.88966c6.41399,0.02232 12.77942,-1.11246 18.79056,-3.34985c1.89841,-0.70469 3.75135,-1.52628 5.54819,-2.46005c0.83143,-0.44132 1.85517,-0.27352 2.50221,0.41014z" fill="url(#color-2)" opacity="0.35"/><path d="M228.58752,239.32596c9.81425,6.14389 21.82926,7.67447 32.8704,4.18731c-32.23218,10.76264 -67.417,-4.31014 -81.86194,-35.06874c-4.26123,-9.17896 -6.4247,-19.19174 -6.33331,-29.31118c0,-19.15695 18.89524,-40.93097 41.87312,-40.93097c54.69676,0 41.87312,41.55907 41.87312,41.66375c-0.03709,-3.52912 -1.19151,-6.95573 -3.29751,-9.78784c-3.17396,-4.24591 -8.15078,-6.76337 -13.45174,-6.80438c-3.71624,-0.05234 -6.49033,1.30853 -8.16526,2.09366c-11.19192,5.5133 -19.374,15.69232 -22.35239,27.8078c-2.97839,12.11548 -0.44837,24.92789 6.91167,35.00188c3.18401,4.46562 7.2225,8.25504 11.8815,11.14872z" fill="url(#color-3)"/><path d="M228.58752,239.32596c9.81425,6.14389 21.82926,7.67447 32.8704,4.18731c-32.23218,10.76264 -67.417,-4.31014 -81.86194,-35.06874c-4.26123,-9.17896 -6.4247,-19.19174 -6.33331,-29.31118c0,-19.15695 18.89524,-40.93097 41.87312,-40.93097c54.69676,0 41.87312,41.55907 41.87312,41.66375c-0.03709,-3.52912 -1.19151,-6.95573 -3.29751,-9.78784c-3.17396,-4.24591 -8.15078,-6.76337 -13.45174,-6.80438c-3.71624,-0.05234 -6.49033,1.30853 -8.16526,2.09366c-11.19192,5.5133 -19.374,15.69232 -22.35239,27.8078c-2.97839,12.11548 -0.44837,24.92789 6.91167,35.00188c3.18401,4.46562 7.2225,8.25504 11.8815,11.14872z" fill="url(#color-4)" opacity="0.41"/><path d="M252.92627,190.96251c2.66941,-3.45453 4.08263,-7.5895 4.08263,-10.41594c0,-2.82644 -0.57576,-9.89252 -3.76858,-15.44071c-3.73707,-6.6137 -9.37061,-11.95554 -16.17349,-15.33603c-9.68316,-5.07712 -20.15144,-5.23414 -21.98339,-5.23414c-22.61148,0 -41.61141,15.44071 -41.87312,34.54532c0.5152,-36.63296 30.3604,-66.05846 66.99699,-66.05484c26.01367,0 49.93369,12.45725 61.08241,34.12659c1.72727,3.45453 6.0716,11.2534 5.91458,22.97787c-0.0185,11.39819 -6.07301,21.93382 -15.91178,27.6886c-4.80281,2.84043 -10.27957,4.34066 -15.85944,4.34434c-0.05234,0 -14.23686,0.73278 -21.72168,-4.50136c-1.62258,-1.09917 -2.51239,-2.46005 -2.51239,-3.82092c0,-1.62258 1.30853,-2.4077 1.77961,-2.93112z" fill="url(#color-5)"/><path d="M252.92627,190.96251c2.66941,-3.45453 4.08263,-7.5895 4.08263,-10.41594c0,-2.82644 -0.57576,-9.89252 -3.76858,-15.44071c-3.73707,-6.6137 -9.37061,-11.95554 -16.17349,-15.33603c-9.68316,-5.07712 -20.15144,-5.23414 -21.98339,-5.23414c-22.61148,0 -41.61141,15.44071 -41.87312,34.54532c0.5152,-36.63296 30.3604,-66.05846 66.99699,-66.05484c26.01367,0 49.93369,12.45725 61.08241,34.12659c1.72727,3.45453 6.0716,11.2534 5.91458,22.97787c-0.0185,11.39819 -6.07301,21.93382 -15.91178,27.6886c-4.80281,2.84043 -10.27957,4.34066 -15.85944,4.34434c-0.05234,0 -14.23686,0.73278 -21.72168,-4.50136c-1.62258,-1.09917 -2.51239,-2.46005 -2.51239,-3.82092c0,-1.62258 1.30853,-2.4077 1.77961,-2.93112z" fill="url(#color-6)"/><path d="M412.87338,113.20518c0.08473,0 0.16782,0.0033 0.25256,0.0033c17.00579,0.06315 32.50729,6.48021 44.26643,16.99967c-7.83016,-5.19575 -16.98554,-8.18337 -26.77052,-8.18337c-15.90538,0 -30.15046,7.89095 -39.7328,20.33461c-7.3841,8.71614 -12.16771,21.6061 -12.49339,36.06868v3.1455c0.32588,14.46305 5.10952,27.35041 12.49527,36.06868c9.58093,12.44366 23.82649,20.33461 39.73281,20.33461c9.78263,0 18.93636,-2.98762 26.76581,-8.18007c-11.81711,10.56777 -27.41286,16.99802 -44.51385,16.99802c-1.06682,0 -2.12524,-0.02825 -3.18202,-0.07809c-35.41126,-1.65888 -63.61208,-30.89414 -63.61208,-66.7154c0,-36.88869 29.90447,-66.79316 66.79316,-66.79316z" fill="url(#color-7)"/><path d="M390.89187,142.364c9.58093,-12.44366 23.82648,-20.33461 39.7328,-20.33461c9.78405,0 18.93942,2.98763 26.77052,8.18338c13.66826,12.22946 22.2753,30.00578 22.2753,49.79207c0,19.78865 -8.6087,37.56591 -22.28025,49.79679c-7.82874,5.19246 -16.98246,8.18007 -26.76581,8.18007c-15.90774,0 -30.15212,-7.89095 -39.73281,-20.33461c6.12793,7.23636 14.04386,11.59797 22.69238,11.59797c19.44439,0 35.20626,-22.04603 35.20626,-49.24069c0,-27.19466 -15.7607,-49.24069 -35.20626,-49.24069c-8.64852,0 -16.56445,4.36349 -22.69403,11.59961" fill="url(#color-8)"/></g></g></svg>