<svg version="1.1" xmlns="http://www.w3.org/2000/svg" xmlns:xlink="http://www.w3.org/1999/xlink" width="130.3119" height="134.58134" viewBox="0,0,130.3119,134.58134"><defs><linearGradient x1="291.79766" y1="133.58652" x2="183.50036" y2="238.07491" gradientUnits="userSpaceOnUse" id="color-1"><stop offset="0.048" stop-color="#fff44f"/><stop offset="0.111" stop-color="#ffe847"/><stop offset="0.225" stop-color="#ffc830"/><stop offset="0.368" stop-color="#ff980e"/><stop offset="0.401" stop-color="#ff8b16"/><stop offset="0.462" stop-color="#ff672a"/><stop offset="0.534" stop-color="#ff3647"/><stop offset="0.705" stop-color="#e31587"/></linearGradient><radialGradient cx="287.60668" cy="127.88761" r="135.99649" gradientUnits="userSpaceOnUse" id="color-2"><stop offset="0.129" stop-color="#ffbd4f"/><stop offset="0.186" stop-color="#ffac31"/><stop offset="0.247" stop-color="#ff9d17"/><stop offset="0.283" stop-color="#ff980e"/><stop offset="0.403" stop-color="#ff563b"/><stop offset="0.467" stop-color="#ff3750"/><stop offset="0.71" stop-color="#f5156c"/><stop offset="0.782" stop-color="#eb0878"/><stop offset="0.86" stop-color="#e50080"/></radialGradient><radialGradient cx="237.11294" cy="183.43072" r="135.99649" gradientUnits="userSpaceOnUse" id="color-3"><stop offset="0.3" stop-color="#960e18"/><stop offset="0.351" stop-color="#b11927" stop-opacity="0.74"/><stop offset="0.435" stop-color="#db293d" stop-opacity="0.343"/><stop offset="0.497" stop-color="#f5334b" stop-opacity="0.094"/><stop offset="0.53" stop-color="#ff3750" stop-opacity="0"/></radialGradient><radialGradient cx="253.94419" cy="97.59136" r="98.5133" gradientUnits="userSpaceOnUse" id="color-4"><stop offset="0.132" stop-color="#fff44f"/><stop offset="0.252" stop-color="#ffdc3e"/><stop offset="0.506" stop-color="#ff9d12"/><stop offset="0.526" stop-color="#ff980e"/></radialGradient><radialGradient cx="221.96482" cy="218.77635" r="64.74981" gradientUnits="userSpaceOnUse" id="color-5"><stop offset="0.353" stop-color="#3a8ee6"/><stop offset="0.472" stop-color="#5c79f0"/><stop offset="0.669" stop-color="#9059ff"/><stop offset="1" stop-color="#c139e6"/></radialGradient><radialGradient cx="243.69059" cy="171.75657" r="34.3359" gradientUnits="userSpaceOnUse" id="color-6"><stop offset="0.206" stop-color="#9059ff" stop-opacity="0"/><stop offset="0.278" stop-color="#8c4ff3" stop-opacity="0.064"/><stop offset="0.747" stop-color="#7716a8" stop-opacity="0.45"/><stop offset="0.975" stop-color="#6e008b" stop-opacity="0.6"/></radialGradient><radialGradient cx="235.42981" cy="122.83823" r="46.5889" gradientUnits="userSpaceOnUse" id="color-7"><stop offset="0" stop-color="#ffe226"/><stop offset="0.121" stop-color="#ffdb27"/><stop offset="0.295" stop-color="#ffc82a"/><stop offset="0.502" stop-color="#ffa930"/><stop offset="0.732" stop-color="#ff7e37"/><stop offset="0.792" stop-color="#ff7139"/></radialGradient><radialGradient cx="272.45856" cy="92.54198" r="198.77704" gradientUnits="userSpaceOnUse" id="color-8"><stop offset="0.113" stop-color="#fff44f"/><stop offset="0.456" stop-color="#ff980e"/><stop offset="0.622" stop-color="#ff5634"/><stop offset="0.716" stop-color="#ff3647"/><stop offset="0.904" stop-color="#e31587"/></radialGradient><radialGradient cx="255.93701" cy="103.56309" r="145.66671" gradientUnits="userSpaceOnUse" id="color-9"><stop offset="0" stop-color="#fff44f"/><stop offset="0.06" stop-color="#ffe847"/><stop offset="0.168" stop-color="#ffc830"/><stop offset="0.304" stop-color="#ff980e"/><stop offset="0.356" stop-color="#ff8b16"/><stop offset="0.455" stop-color="#ff672a"/><stop offset="0.57" stop-color="#ff3647"/><stop offset="0.737" stop-color="#e31587"/></radialGradient><radialGradient cx="235.42981" cy="139.66948" r="124.07996" gradientUnits="userSpaceOnUse" id="color-10"><stop offset="0.137" stop-color="#fff44f"/><stop offset="0.48" stop-color="#ff980e"/><stop offset="0.592" stop-color="#ff5634"/><stop offset="0.655" stop-color="#ff3647"/><stop offset="0.904" stop-color="#e31587"/></radialGradient><radialGradient cx="267.40919" cy="146.40198" r="135.81134" gradientUnits="userSpaceOnUse" id="color-11"><stop offset="0.094" stop-color="#fff44f"/><stop offset="0.231" stop-color="#ffe141"/><stop offset="0.509" stop-color="#ffaf1e"/><stop offset="0.626" stop-color="#ff980e"/></radialGradient><linearGradient x1="290.48483" y1="133.03109" x2="198.35057" y2="225.18217" gradientUnits="userSpaceOnUse" id="color-12"><stop offset="0.167" stop-color="#fff44f" stop-opacity="0.8"/><stop offset="0.266" stop-color="#fff44f" stop-opacity="0.634"/><stop offset="0.489" stop-color="#fff44f" stop-opacity="0.217"/><stop offset="0.6" stop-color="#fff44f" stop-opacity="0"/></linearGradient></defs><g transform="translate(-174.84405,-112.70933)"><g data-paper-data="{&quot;isPaintingLayer&quot;:true}" fill-rule="nonzero" stroke="none" stroke-width="1" stroke-linecap="butt" stroke-linejoin="miter" stroke-miterlimit="10" stroke-dasharray="" stroke-dashoffset="0" style="mix-blend-mode: normal"><path d="M300.42536,157.88762c4.12046,10.39989 5.57503,21.66502 4.23138,32.77044c-0.09762,0.84998 -0.18683,1.68312 -0.29623,2.52469c-5.78175,33.34195 -36.09759,56.72795 -69.81505,53.85616c-33.71746,-2.87179 -59.64164,-31.04787 -59.70141,-64.88736v-0.33662c0.13385,-3.01939 0.48768,-6.02501 1.05869,-8.99294c0.00505,-0.04881 0.01515,-0.09425 0.01515,-0.14307c0.07574,-0.62444 0.5184,-3.49922 0.64127,-4.07316l0.08752,-0.43088c1.58415,-7.09989 4.5588,-13.81573 8.75225,-19.75989v0.01178v-0.0101c1.82481,-2.60482 3.8646,-5.05223 6.09796,-7.31654c1.95985,-2.0052 4.09341,-3.83291 6.37568,-5.46174c0.68308,-0.46133 1.41315,-0.84893 2.17796,-1.15631c-0.14811,2.25707 -0.32989,13.06273 2.25539,16.33978h0.0303c4.3377,-5.0882 9.68447,-9.2205 15.70187,-12.13533c-1.36611,5.23548 -1.30276,10.74158 0.18346,15.94424c0.58367,0.39456 1.14553,0.82046 1.68312,1.27581c5.15468,-4.05924 11.41319,-6.47056 17.95894,-6.91933c0.50494,-8.8869 6.06767,-26.64387 22.45289,-36.23768l-0.02525,0.04376c0.01515,-0.00673 0.03703,-0.02188 0.04713,-0.02525c0.0101,-0.00337 0.02356,-0.01851 0.03198,-0.01851c0.04021,-0.01103 0.08265,-0.01103 0.12287,0c0.08499,0.01027 0.14873,0.0827 0.14811,0.16831c0.2227,0.8961 0.54919,1.76316 0.97285,2.5836c0.20029,0.409 0.43088,0.85334 0.71869,1.3465c0.50325,0.86344 1.01997,1.68144 1.53669,2.49776c10.21657,16.14117 22.71882,23.56375 30.09427,41.94347l-0.01178,-0.1094c-1.16718,-6.8993 -3.39567,-13.57626 -6.60626,-19.79355c4.50236,2.32776 10.25191,9.69143 13.0863,16.51145zM226.19619,209.43669l-0.04544,-0.02861c-0.31306,-0.1397 -0.59919,-0.29791 -0.90384,-0.44434c0.31643,0.16382 0.63285,0.32148 0.94928,0.47296zM240.18969,169.61227M293.97731,161.31446l-0.01178,-0.06901v0.06228z" fill="url(#color-1)"/><path d="M300.43883,157.88931c4.12046,10.39989 5.57503,21.66502 4.23138,32.77044c-0.09762,0.84998 -0.18683,1.68312 -0.29623,2.52469c-5.78175,33.34195 -36.09759,56.72795 -69.81505,53.85616c-33.71746,-2.87179 -59.64164,-31.04787 -59.70141,-64.88736v-0.33662c0.06847,-3.02656 0.41952,-6.0401 1.04859,-9.00135c-0.46118,3.81228 -1.37848,6.19053 -0.46118,10.8814c5.03254,29.74082 31.9962,52.45459 62.59541,53.32139c28.32699,0.8079 46.41722,-15.63455 53.89366,-31.67641c6.33143,-13.86541 7.05871,-29.64141 2.02985,-44.03055l-0.01178,-0.06901v-0.06228c-1.16718,-6.8993 -3.39567,-13.57626 -6.60626,-19.79355c4.50236,2.32776 10.25191,9.69143 13.0863,16.51145z" fill="url(#color-2)"/><path d="M300.43883,157.88931c4.12046,10.39989 5.57503,21.66502 4.23138,32.77044c-0.09762,0.84998 -0.18683,1.68312 -0.29623,2.52469c-5.78175,33.34195 -36.09759,56.72795 -69.81505,53.85616c-33.71746,-2.87179 -59.64164,-31.04787 -59.70141,-64.88736v-0.33662c0.06847,-3.02656 0.41952,-6.0401 1.04859,-9.00135c-0.46118,3.81228 -1.37848,6.19053 -0.46118,10.8814c5.03254,29.74082 31.9962,52.45459 62.59541,53.32139c28.32699,0.8079 46.41722,-15.63455 53.89366,-31.67641c6.33143,-13.86541 7.05871,-29.64141 2.02985,-44.03055l-0.01178,-0.06901v-0.06228c-1.16718,-6.8993 -3.39567,-13.57626 -6.60626,-19.79355c4.50236,2.32776 10.25191,9.69143 13.0863,16.51145z" fill="url(#color-3)"/><path d="M268.72202,165.55257c-5.83413,-10.29603 -16.74541,-16.66866 -28.57946,-16.69155c-0.7776,0 -1.53164,0.06396 -2.29242,0.11614c0.50494,-8.8869 6.06767,-26.64387 22.45289,-36.23768l-0.02525,0.03703c-2.523,1.21185 -17.49103,24.89342 2.79062,45.17507c2.38085,2.33645 4.42065,4.99668 6.05925,7.90227c-0.13297,-0.0993 -0.26425,-0.19861 -0.40563,-0.29791z" fill="url(#color-4)"/><path d="M240.17286,169.5988c-0.02525,-0.53018 -11.37792,-5.04769 -15.80454,-9.40867c-2.36479,-2.33113 -3.48743,-3.45546 -4.48216,-4.29702c5.15468,-4.05924 11.41319,-6.47056 17.95894,-6.91933c0.76077,-0.05218 1.51818,-0.11614 2.29242,-0.11614c11.83405,0.02289 22.74533,6.39552 28.57946,16.69155c-4.58849,-3.17823 -10.19376,-4.53921 -15.7288,-3.81901c23.46444,11.73138 17.16956,52.13647 -15.34842,50.61156c-2.89523,-0.11902 -5.75631,-0.67104 -8.488,-1.63768c-0.63847,-0.24013 -1.27693,-0.50157 -1.9154,-0.78434c-0.3686,-0.16663 -0.73721,-0.33662 -1.10076,-0.52513c-7.9595,-4.10682 -14.54388,-11.89296 -15.36525,-21.34202c0,0 3.01279,-11.22139 21.56083,-11.22139c2.0046,0 7.73732,-5.59639 7.84504,-7.21892z" fill="url(#color-5)"/><path d="M240.17286,169.5988c-0.02525,-0.53018 -11.37792,-5.04769 -15.80454,-9.40867c-2.36479,-2.33113 -3.48743,-3.45546 -4.48216,-4.29702c5.15468,-4.05924 11.41319,-6.47056 17.95894,-6.91933c0.76077,-0.05218 1.51818,-0.11614 2.29242,-0.11614c11.83405,0.02289 22.74533,6.39552 28.57946,16.69155c-4.58849,-3.17823 -10.19376,-4.53921 -15.7288,-3.81901c23.46444,11.73138 17.16956,52.13647 -15.34842,50.61156c-2.89523,-0.11902 -5.75631,-0.67104 -8.488,-1.63768c-0.63847,-0.24013 -1.27693,-0.50157 -1.9154,-0.78434c-0.3686,-0.16663 -0.73721,-0.33662 -1.10076,-0.52513c-7.9595,-4.10682 -14.54388,-11.89296 -15.36525,-21.34202c0,0 3.01279,-11.22139 21.56083,-11.22139c2.0046,0 7.73732,-5.59639 7.84504,-7.21892z" fill="url(#color-6)"/><path d="M202.30928,150.82523c4.3377,-5.0882 9.68447,-9.2205 15.70187,-12.13533c-1.36611,5.23548 -1.30276,10.74158 0.18346,15.94424c-0.38207,-0.26425 -0.818,-0.55711 -1.3465,-0.89374c-4.75819,-3.09358 -14.22072,-2.92359 -14.53883,-2.91517z" fill="url(#color-7)"/><path d="M175.42136,183.70339c-1.14284,-5.25472 1.17482,-15.38713 1.2068,-15.52009c1.58415,-7.09989 4.5588,-13.81573 8.75225,-19.75989v0.01178v-0.0101c1.83361,-2.59998 3.88185,-5.04176 6.12321,-7.29971c1.95985,-2.0052 4.09341,-3.83291 6.37568,-5.46174c0.68308,-0.46133 1.41315,-0.84893 2.17796,-1.15631c-0.14811,2.25707 -0.32989,13.06273 2.25539,16.33978h0.0303c0.31306,-0.00842 9.77559,-0.17841 14.53378,2.91517c0.52345,0.34336 0.95938,0.62949 1.3465,0.89374c0.58367,0.39456 1.14553,0.82046 1.68312,1.27581c0.99473,0.84325 2.11737,1.96589 4.48216,4.29702c4.42662,4.35929 15.7793,8.87848 15.80454,9.40867c-7.97574,2.88894 -16.76514,2.5434 -24.48947,-0.96275c-7.61984,-3.86466 -16.69897,-3.50022 -23.98453,0.96275c2.77804,6.00855 8.83381,9.81773 15.45277,9.72005c-1.21185,10.67101 4.4283,23.09921 18.07676,29.623c0.31643,0.16382 0.63285,0.32148 0.94928,0.47296c4.52761,3.08685 26.93,10.65418 50.34226,-8.41562l0.03703,-0.08416c12.01583,-9.91361 19.70098,-24.54501 17.38668,-39.65442l-0.01178,-0.1094c-0.0101,-0.01515 0,0.01346 0,0.06228v0.06228c5.02887,14.38913 4.30158,30.16513 -2.02985,44.03055c-7.47307,16.03345 -25.56667,32.47758 -53.89366,31.67641c-30.59921,-0.85839 -57.56119,-23.58058 -62.59541,-53.32139z" fill="url(#color-8)"/><path d="M263.07514,157.9196c-20.28165,-20.26482 -5.31699,-43.96154 -2.79399,-45.15824c0.01515,-0.00673 0.03703,-0.02188 0.04713,-0.02525c0.0101,-0.00337 0.02356,-0.01851 0.03198,-0.01851c0.04021,-0.01103 0.08265,-0.01103 0.12287,0c0.08499,0.01027 0.14873,0.0827 0.14811,0.16831c0.2227,0.8961 0.54919,1.76316 0.97285,2.5836c0.20029,0.409 0.43088,0.85334 0.71869,1.3465c0.50325,0.86344 1.01997,1.68144 1.53669,2.49776c10.19974,16.14117 22.71545,23.56375 30.09427,41.9603c2.30588,15.11446 -5.37253,29.75596 -17.38668,39.65442c0.57731,-1.36333 8.32642,-20.63511 -6.4632,-34.26842c-0.28445,-0.26088 -0.61939,-0.53018 -0.9779,-0.80117c-1.63794,-2.90855 -3.67776,-5.57166 -6.05925,-7.91069z" fill="url(#color-9)"/><path d="M270.09882,166.67353c14.79635,13.63331 7.04724,32.90509 6.4632,34.26842l-0.03703,0.08416c-23.41227,19.07317 -45.80793,11.51089 -50.34226,8.41562l-0.04544,-0.02861c0.36355,0.18851 0.73216,0.35682 1.10076,0.52513c0.63847,0.28389 1.27693,0.54533 1.9154,0.78434c2.73169,0.96664 5.59277,1.51866 8.488,1.63768c32.51629,1.51481 38.81118,-38.88018 15.34842,-50.61156c5.53504,-0.7202 11.14031,0.64078 15.7288,3.81901c0.14138,0.0993 0.27267,0.19861 0.40563,0.29791c0.35851,0.27098 0.69345,0.54028 0.9779,0.80117z" fill="url(#color-10)"/><path d="M210.77203,188.04754c0.82136,9.44401 7.39902,17.22678 15.36525,21.34202c-0.31306,-0.1397 -0.59919,-0.29791 -0.90384,-0.44434c-13.64678,-6.53052 -19.28524,-18.95704 -18.07676,-29.623c-6.61896,0.09768 -12.67473,-3.71149 -15.45277,-9.72005c7.28556,-4.46297 16.36469,-4.82741 23.98453,-0.96275c7.72433,3.50615 16.51373,3.85168 24.48947,0.96275c-0.10267,1.62253 -5.84044,7.21892 -7.84504,7.21892c-18.54972,0 -21.56083,11.22139 -21.56083,11.22139z" fill="url(#color-11)"/><path d="M300.42873,157.90109c4.12046,10.39989 5.57503,21.66502 4.23138,32.77044c-0.09762,0.84998 -0.18683,1.68312 -0.29623,2.52469c-5.78175,33.34195 -36.09759,56.72795 -69.81505,53.85616c-33.71746,-2.87179 -59.64164,-31.04787 -59.70141,-64.88736v-0.33662c0.13783,-3.0479 0.45933,-6.08472 0.96275,-9.09392c0.07911,-0.62612 0.62949,-3.54129 0.75236,-4.11524l0.08752,-0.43088c1.58415,-7.09989 4.5588,-13.81573 8.75225,-19.75989v0.01178v-0.0101c1.82481,-2.60482 3.8646,-5.05223 6.09796,-7.31654c1.95985,-2.0052 4.09341,-3.83291 6.37568,-5.46174c0.68308,-0.46133 1.41315,-0.84893 2.17796,-1.15631c-0.14811,2.25707 -0.32989,13.06273 2.25539,16.33978h0.0303c4.3377,-5.0882 9.68447,-9.2205 15.70187,-12.13533c-1.36611,5.23548 -1.30276,10.74158 0.18346,15.94424c0.58367,0.39456 1.14553,0.82046 1.68312,1.27581c0.99473,0.84325 2.11737,1.96589 4.48216,4.29702c4.42662,4.35929 15.7793,8.87848 15.80454,9.40867c-0.10267,1.62253 -5.84044,7.21892 -7.84504,7.21892c-18.54972,0 -21.56083,11.22139 -21.56083,11.22139c0.82136,9.44233 7.39902,17.2251 15.36525,21.34202c-0.31306,-0.1397 -0.59919,-0.29791 -0.90384,-0.44434c0.31643,0.16382 0.63285,0.32148 0.94928,0.47296l-0.04544,-0.02861c0.36355,0.18851 0.73216,0.35682 1.10076,0.52513c0.63847,0.28389 1.27693,0.54533 1.9154,0.78434c2.73169,0.96664 5.59277,1.51866 8.488,1.63768c32.51629,1.51481 38.81118,-38.88018 15.34842,-50.61156c5.53504,-0.7202 11.14031,0.64078 15.7288,3.81901c-5.83413,-10.29603 -16.74541,-16.66866 -28.57946,-16.69155c-0.7776,0 -1.53164,0.06396 -2.29242,0.11614c0.50494,-8.8869 6.06767,-26.64387 22.45289,-36.23768l-0.02525,0.04376c0.01515,-0.00673 0.03703,-0.02188 0.04713,-0.02525c0.0101,-0.00337 0.02356,-0.01851 0.03198,-0.01851c0.04021,-0.01103 0.08265,-0.01103 0.12287,0c0.08499,0.01027 0.14873,0.0827 0.14811,0.16831c0.2227,0.8961 0.54919,1.76316 0.97285,2.5836c0.20029,0.409 0.43088,0.85334 0.71869,1.3465c0.50325,0.86344 1.01997,1.68144 1.53669,2.49776c10.21657,16.14117 22.71882,23.56375 30.09427,41.94347l-0.01178,-0.1094c-1.16718,-6.8993 -3.39567,-13.57626 -6.60626,-19.79355c4.50236,2.32776 10.25191,9.69143 13.0863,16.51145zM293.97226,161.31783l-0.01178,-0.06901z" fill="url(#color-12)"/></g></g></svg>