<svg version="1.1" xmlns="http://www.w3.org/2000/svg" xmlns:xlink="http://www.w3.org/1999/xlink" width="299.12911" height="134.95581" viewBox="0,0,299.12911,134.95581"><g transform="translate(-90.43544,-112.5221)"><g data-paper-data="{&quot;isPaintingLayer&quot;:true}" fill-rule="nonzero" stroke="none" stroke-width="1" stroke-linecap="butt" stroke-linejoin="miter" stroke-miterlimit="10" stroke-dasharray="" stroke-dashoffset="0" style="mix-blend-mode: normal"><path d="M227.13362,183.16704c0,2.68055 -0.17259,5.32098 -0.50567,7.91174h-87.86149c0,14.46505 12.54555,26.19095 28.02193,26.19095c10.56299,0 19.75737,-5.46491 24.5332,-13.53332h32.27617c-8.4588,23.80909 -31.18395,40.85852 -57.89395,40.85852c-9.75673,0 -18.97976,-2.27806 -27.17236,-6.32531c-7.60859,3.93708 -62.13417,30.31272 -44.66377,-32.14561c0.11655,-0.41587 2.80984,-7.42072 8.34226,-17.44684c1.05528,-1.9125 2.22711,-3.94536 3.49064,-6.05401c0.01656,-0.02739 0.03375,-0.05541 0.05031,-0.08279c0.47,-0.78334 0.95211,-1.57496 1.45141,-2.38059c0.02675,-0.04394 0.05477,-0.08789 0.08152,-0.13119c0.49866,-0.80245 1.00752,-1.6119 1.53484,-2.43345c0.00446,-0.00764 0.00955,-0.01528 0.01465,-0.02293c2.00293,-3.11999 4.22048,-6.36798 6.64757,-9.67967c0.26812,-0.3662 0.53051,-0.72984 0.80372,-1.09731c0.38212,-0.51331 0.77761,-1.02917 1.16992,-1.54503c0.34773,-0.45663 0.69291,-0.91262 1.04827,-1.37053c0.3732,-0.48083 0.75532,-0.96166 1.13744,-1.44313c0.39422,-0.49675 0.78907,-0.99414 1.19284,-1.49217c0.3732,-0.46045 0.75341,-0.9209 1.13489,-1.38199c0.43116,-0.52095 0.86677,-1.04191 1.30811,-1.56286c0.3783,-0.44644 0.76105,-0.89224 1.14699,-1.33805c0.46555,-0.53751 0.93746,-1.07375 1.41383,-1.60999c0.38339,-0.43179 0.76742,-0.86231 1.15782,-1.29283c0.50248,-0.55407 1.01452,-1.10623 1.52974,-1.65775c0.38466,-0.41141 0.76678,-0.82346 1.15845,-1.23424c0.55152,-0.57827 1.11515,-1.15272 1.68004,-1.72781c0.3732,-0.38021 0.74194,-0.76105 1.12088,-1.13871c0.63686,-0.63495 1.28901,-1.26417 1.94243,-1.89275c0.32544,-0.31334 0.64323,-0.62922 0.97313,-0.94065c0.99096,-0.93682 1.99847,-1.86664 3.02764,-2.78627c-6.44759,2.78691 -17.21438,9.751 -32.59906,27.01059c6.25335,-27.29272 30.68656,-47.65193 59.87586,-47.65193c1.16928,0 2.32964,0.03566 3.483,0.10062c7.8213,-3.64986 16.30048,-6.52911 25.46557,-8.32251c2.40861,-0.47128 45.66874,-7.39397 24.7854,39.86948c4.89938,8.82181 7.69329,18.97403 7.69329,29.78031zM187.90356,125.87748c12.49651,4.84588 23.01046,13.66196 29.99875,24.90067c7.28634,-18.88232 3.04356,-24.48926 -2.24621,-28.05951c-7.99007,-5.39358 -22.06791,0.41332 -27.75254,3.15884zM134.42243,236.04314c-12.3755,-7.33601 -21.95009,-18.89506 -26.74821,-32.69013c-9.50708,19.61026 -8.74539,30.37195 -4.43702,34.7905c8.69126,8.91416 25.03059,1.2871 31.18522,-2.10037zM194.14734,174.27898c-0.49102,-14.05873 -12.72705,-25.31527 -27.75954,-25.31527c-15.03313,0 -27.26852,11.25654 -27.75954,25.31527z" id="svg" fill="#1ebbee"/><path d="M303.29825,192.65211c0,3.24737 0.485,6.19953 1.47608,8.85648c1.05434,2.61477 2.42499,4.95541 4.1752,7.00083c1.75021,2.04542 3.79563,3.79563 6.19953,5.27171c2.31955,1.47608 4.84997,2.69912 7.54909,3.64802c2.67803,0.96999 5.48258,1.68695 8.3293,2.15086c2.8889,0.46391 5.69345,0.69587 8.54017,0.69587c3.58476,0 6.91649,-0.27413 10.07951,-0.84347c3.16303,-0.59043 6.24171,-1.37065 9.27821,-2.36173c3.03651,-0.99108 5.96758,-2.17195 8.89865,-3.5215c2.95216,-1.34956 5.94649,-2.82564 9.02517,-4.47041v28.59376c-3.43716,1.68695 -6.81105,3.09977 -10.18495,4.3228c-3.3739,1.18086 -6.74779,2.21412 -10.18495,3.03651c-3.43716,0.84347 -6.91649,1.47608 -10.48016,1.85564c-3.56368,0.37956 -7.2117,0.59043 -11.00733,0.59043c-5.06084,0 -9.95299,-0.59043 -14.65536,-1.75021c-4.70237,-1.15978 -9.10952,-2.82564 -13.24254,-5.01867c-4.13302,-2.19303 -7.90757,-4.84997 -11.34472,-7.97083c-3.45824,-3.12085 -6.38931,-6.64236 -8.85648,-10.54342c-2.46716,-3.90107 -4.36498,-8.1817 -5.73562,-12.77863c-1.32847,-4.59693 -2.00325,-9.48908 -2.00325,-14.67645c0,-5.54584 0.75913,-10.81755 2.27738,-15.85731c1.53934,-5.06084 3.71129,-9.65778 6.5791,-13.87515c2.84672,-4.21737 6.32605,-7.97083 10.43799,-11.23929c4.11194,-3.26846 8.72995,-5.94649 13.87515,-8.013c-2.80455,2.80455 -4.99758,6.11519 -6.53692,9.97408c-1.58151,3.83781 -2.5726,7.6967 -3.01542,11.55559h48.03584c0,-4.84997 -0.485,-9.06734 -1.47608,-12.69428c-0.99108,-3.62694 -2.5726,-6.64236 -4.78671,-9.02517c-2.19303,-2.4039 -5.01867,-4.21737 -8.498,-5.39823c-3.47933,-1.20195 -7.67561,-1.81347 -12.58885,-1.81347c-5.79888,0 -11.59777,0.84347 -17.39665,2.59368c-5.79888,1.68695 -11.30255,4.11194 -16.53209,7.16953c-5.22954,3.09977 -10.03734,6.74779 -14.4234,10.92299c-4.38606,4.21737 -8.07626,8.75104 -11.07059,13.66428c0.63261,-5.69345 1.89782,-11.17603 3.64802,-16.38448c1.75021,-5.20845 4.06976,-10.05843 6.85323,-14.54992c2.78346,-4.42824 6.05193,-8.47691 9.7843,-12.10385c3.73237,-3.62694 7.86539,-6.74779 12.44124,-9.27821c4.57585,-2.53042 9.42582,-4.57585 14.69753,-5.94649c5.27171,-1.20195 10.88081,-1.9189 16.78513,-1.9189c3.45824,0 6.8954,0.3163 10.33256,0.92782c3.43716,0.63261 6.78996,1.47608 10.05843,2.5726c6.49475,2.23521 12.29363,5.35606 17.39665,9.32039c5.10302,4.0065 9.38365,8.56126 12.86298,13.76971c3.47933,5.20845 6.11519,10.96516 7.92865,17.22795c1.81347,6.26279 2.74129,12.77863 2.74129,19.54751v16.76404z" fill="#0078d7"/></g></g></svg>