<svg version="1.1" xmlns="http://www.w3.org/2000/svg" xmlns:xlink="http://www.w3.org/1999/xlink" width="31.9689" height="31.79438" viewBox="0,0,31.9689,31.79438"><g transform="translate(-222.41641,-164.06684)"><g data-paper-data="{&quot;isPaintingLayer&quot;:true}" fill-rule="nonzero" stroke-linejoin="miter" stroke-miterlimit="10" stroke-dasharray="" stroke-dashoffset="0" style="mix-blend-mode: normal"><path d="M222.41642,189.98047c0,-3.48666 0,-13.12425 0,-19.51676c0,-4.65976 1.36065,-6.39378 6.21617,-6.39378c6.4421,0 19.07153,-0.00693 19.71416,0c5.11094,0.05516 6.03857,1.90906 6.03857,6.36096c0,3.44915 0,13.0135 0,19.49697c0,4.66296 -1.15451,5.93336 -5.68336,5.93336c-3.63682,0 -13.67362,0 -20.17458,0c-4.73451,0 -6.11096,-2.04344 -6.11096,-5.88075z" fill="#dfdfde" stroke="none" stroke-width="0" stroke-linecap="butt"/><path d="M232.71751,176.14707c0,0 3.19129,-3.19129 4.17372,-4.17372c0.53618,-0.53618 1.19916,-1.19167 1.24323,-1.24323c0.04078,-0.04772 0.73756,0.73756 1.28233,1.28233c0.95696,0.95696 3.95702,3.95702 3.95702,3.95702" fill="none" stroke="#212121" stroke-width="3" stroke-linecap="round"/><path d="M243.53172,183.65146c0,0 -3.19129,3.19129 -4.17372,4.17372c-0.53618,0.53618 -1.19916,1.19167 -1.24323,1.24323c-0.04078,0.04772 -0.73756,-0.73756 -1.28232,-1.28232c-0.95696,-0.95696 -3.95702,-3.95703 -3.95702,-3.95703" fill="none" stroke="#212121" stroke-width="3" stroke-linecap="round"/></g></g></svg>