<svg version="1.1" xmlns="http://www.w3.org/2000/svg" xmlns:xlink="http://www.w3.org/1999/xlink" width="133.76711" height="134.35789" viewBox="0,0,133.76711,134.35789"><defs><linearGradient x1="239.99759" y1="246.51703" x2="239.99759" y2="112.84396" gradientUnits="userSpaceOnUse" id="color-1"><stop offset="0" stop-color="#bdbdbd"/><stop offset="1" stop-color="#ffffff"/></linearGradient><radialGradient cx="240.27769" cy="170.69932" r="66.83681" fx="240.27769" fy="170.69932" gradientUnits="userSpaceOnUse" id="color-2"><stop offset="0" stop-color="#06c2e7"/><stop offset="0.25" stop-color="#0db8ec"/><stop offset="0.5" stop-color="#12aef1"/><stop offset="0.75" stop-color="#1f86f9"/><stop offset="1" stop-color="#107ddd"/></radialGradient></defs><g transform="translate(-173.11645,-112.7978)"><g data-paper-data="{&quot;isPaintingLayer&quot;:true}" fill-rule="nonzero" stroke-miterlimit="10" stroke-dasharray="" stroke-dashoffset="0" style="mix-blend-mode: normal"><path d="M304.38902,185.15593c0,16.44336 -6.78349,32.21324 -18.85817,43.84045c-12.07468,11.62721 -28.45147,18.15931 -45.52765,18.15931c-35.55931,0 -64.38582,-27.75824 -64.38582,-61.99976c0,-34.24152 28.82651,-61.99975 64.38582,-61.99975c17.07618,0 33.45297,6.5321 45.52765,18.15931c12.07468,11.62721 18.85817,27.39709 18.85817,43.84045z" fill="#000000" stroke="none" stroke-width="1" stroke-linecap="butt" stroke-linejoin="miter" opacity="0.53"/><path d="M306.83705,179.68137c0,17.72629 -7.04174,34.72656 -19.57612,47.26094c-12.53438,12.53438 -29.53465,19.57612 -47.26094,19.57612c-36.91308,-0.00001 -66.83704,-29.92398 -66.83704,-66.83706c0,-36.91308 29.92396,-66.83705 66.83704,-66.83706c17.72629,0 34.72656,7.04174 47.26094,19.57612c12.53438,12.53438 19.57612,29.53465 19.57612,47.26094z" fill="url(#color-1)" stroke="#cdcdcd" stroke-width="0.09301" stroke-linecap="round" stroke-linejoin="round"/><path d="M301.59974,179.68137c0,34.0206 -27.57915,61.59975 -61.59975,61.59975c-34.0206,0 -61.59975,-27.57915 -61.59975,-61.59975c0,-34.0206 27.57915,-61.59975 61.59975,-61.59975c34.0206,0 61.59975,27.57915 61.59975,61.59975z" fill="url(#color-2)" stroke="none" stroke-width="1" stroke-linecap="butt" stroke-linejoin="miter"/><path d="M240.89809,122.1921v10.35924c0,0.49757 -0.40053,0.8981 -0.8981,0.8981c-0.49755,0 -0.8981,-0.40053 -0.8981,-0.8981v-10.35924c0,-0.49757 0.40055,-0.8981 0.8981,-0.8981c0.49757,0 0.8981,0.40053 0.8981,0.8981zM234.12455,121.66534c0.41645,0.04043 0.75905,0.36778 0.80428,0.8008l0.45233,4.33383c0.0517,0.49488 -0.30513,0.93484 -0.80003,0.98647c-0.49484,0.05168 -0.93482,-0.30515 -0.98645,-0.80003l-0.45272,-4.33385c-0.05168,-0.49488 0.30513,-0.93484 0.80001,-0.98647c0.06188,-0.00715 0.12311,-0.00715 0.18264,-0.00075zM245.91641,121.66965c0.05953,-0.00529 0.12034,-0.00529 0.18221,0.00111c0.49484,0.05202 0.85171,0.49202 0.79965,0.98686l-0.45583,4.33385c-0.05206,0.49484 -0.49202,0.85133 -0.98684,0.79927c-0.49486,-0.05204 -0.85171,-0.4924 -0.79965,-0.98724l0.45581,-4.33349c0.04557,-0.43296 0.38822,-0.76028 0.80469,-0.8004zM228.0892,122.54001c0.41839,-0.00326 0.7931,0.28649 0.88335,0.71243l2.14543,10.1348c0.10303,0.48677 -0.20592,0.96134 -0.69269,1.06439c-0.48677,0.10303 -0.96168,-0.2059 -1.06474,-0.69267l-2.14543,-10.13444c-0.10306,-0.48677 0.2059,-0.9617 0.69267,-1.06476c0.06081,-0.0128 0.12162,-0.01873 0.18136,-0.0192zM251.95158,122.54963c0.05974,0 0.12055,0.0064 0.18136,0.0192c0.48662,0.10338 0.79536,0.57845 0.69188,1.06514l-2.15279,10.13327c-0.10338,0.48664 -0.57843,0.79538 -1.06514,0.6919c-0.48662,-0.1034 -0.79536,-0.57845 -0.69188,-1.06516l2.15279,-10.13325c0.09045,-0.42586 0.46535,-0.7159 0.88374,-0.71164zM222.32925,124.16455c0.34881,0.02966 0.66158,0.26295 0.7768,0.61786l1.34653,4.14432c0.15377,0.4732 -0.10314,0.97798 -0.57636,1.13182c-0.4732,0.15375 -0.97798,-0.10355 -1.13182,-0.57677l-1.34655,-4.14432c-0.15377,-0.4732 0.10355,-0.9776 0.57675,-1.13143c0.11831,-0.03926 0.23837,-0.05206 0.35466,-0.04139zM257.67885,124.16668c0.11626,-0.00981 0.23684,0.00277 0.35504,0.04118c0.47312,0.15381 0.73022,0.65862 0.57638,1.13182l-1.34732,4.14432c-0.15384,0.47309 -0.65864,0.7302 -1.13184,0.57636c-0.47312,-0.15381 -0.73022,-0.65864 -0.57638,-1.13182l1.34734,-4.14394c0.11537,-0.35489 0.42797,-0.58818 0.77678,-0.61784zM216.63334,126.24902c0.35,-0.00679 0.68535,0.1931 0.83684,0.53412l4.2079,9.4662c0.2021,0.45466 -0.00179,0.98325 -0.45622,1.18531c-0.45466,0.2021 -0.98325,-0.00119 -1.18531,-0.45583l-4.2075,-9.4662c-0.2021,-0.45466 0.00141,-0.98325 0.45583,-1.18531c0.11366,-0.05057 0.23174,-0.07617 0.34845,-0.07831zM263.43912,126.28075c0.11667,0.00256 0.23496,0.02816 0.34847,0.07873c0.45438,0.20272 0.65697,0.73169 0.45428,1.1861l-4.22028,9.46038c-0.20274,0.45438 -0.73169,0.65697 -1.1861,0.45428c-0.45438,-0.20272 -0.65699,-0.73169 -0.4543,-1.18608l4.22032,-9.4604c0.15202,-0.34072 0.48762,-0.53937 0.83761,-0.53296zM211.34634,129.04645c0.2874,0.0201 0.55959,0.17837 0.71514,0.4477l2.17878,3.77375c0.24876,0.43091 0.10218,0.978 -0.32871,1.22679c-0.43091,0.24878 -0.97798,0.10222 -1.22676,-0.32869l-2.17878,-3.77377c-0.24876,-0.43089 -0.1022,-0.978 0.32871,-1.22679c0.16158,-0.09345 0.33923,-0.13186 0.51163,-0.11906zM268.65361,129.04632c0.17244,-0.01195 0.35052,0.02582 0.51203,0.11906c0.43091,0.24878 0.57749,0.79589 0.32871,1.22679l-2.17876,3.77377c-0.24878,0.43089 -0.79587,0.57747 -1.22679,0.32869c-0.43087,-0.24878 -0.57788,-0.79587 -0.32909,-1.22679l2.17916,-3.77375c0.15548,-0.26933 0.42737,-0.4285 0.71473,-0.4477zM206.21248,132.24851c0.28789,-0.00984 0.57474,0.11923 0.75738,0.37096l6.08313,8.38515c0.29229,0.40275 0.20325,0.96215 -0.1995,1.25431c-0.40275,0.29208 -0.96253,0.20304 -1.25469,-0.19971l-6.08274,-8.38515c-0.29227,-0.40275 -0.20323,-0.96215 0.1995,-1.25431c0.15104,-0.10946 0.3241,-0.16493 0.49693,-0.17133zM273.85187,132.29411c0.17274,0.00619 0.34569,0.06252 0.49654,0.17219c0.40219,0.29272 0.4907,0.85233 0.198,1.25469l-6.09399,8.37702c-0.29272,0.40219 -0.85235,0.49027 -1.25472,0.19758c-0.40241,-0.29272 -0.49074,-0.85235 -0.198,-1.25469l6.09435,-8.37702c0.18296,-0.25137 0.46989,-0.38045 0.75779,-0.36978zM201.62355,136.09681c0.22928,0.01206 0.45415,0.11193 0.62057,0.29692l2.91521,3.23848c0.33298,0.3698 0.30323,0.93576 -0.06657,1.26865c-0.3698,0.33298 -0.93539,0.30323 -1.26826,-0.06657l-2.91559,-3.23886c-0.33296,-0.3698 -0.30323,-0.93537 0.06657,-1.26826c0.1849,-0.16645 0.41884,-0.24304 0.64808,-0.23024zM278.38317,136.10342c0.22928,-0.01201 0.46273,0.06382 0.64771,0.23024c0.36966,0.33291 0.39953,0.89886 0.06657,1.26865l-2.91598,3.23807c-0.33294,0.36966 -0.89852,0.39951 -1.26826,0.06657c-0.36985,-0.33294 -0.39933,-0.89889 -0.06636,-1.26865l2.91559,-3.23809c0.16647,-0.18488 0.39129,-0.2841 0.62055,-0.2969zM197.22515,140.32176c0.22928,-0.01206 0.46313,0.06382 0.64812,0.23024l7.69945,6.93083c0.36989,0.33289 0.39927,0.89848 0.06636,1.26826c-0.33287,0.3697 -0.89844,0.39948 -1.26824,0.06657l-7.69909,-6.93083c-0.3697,-0.33289 -0.39946,-0.89846 -0.06657,-1.26826c0.16645,-0.1849 0.39093,-0.28412 0.62019,-0.29692zM282.8025,140.35195c0.22924,0.0122 0.45374,0.11229 0.62017,0.29728c0.33264,0.37004 0.30259,0.93563 -0.06742,1.26826l-7.70413,6.92541c-0.37002,0.33266 -0.93601,0.30259 -1.26865,-0.06742c-0.33259,-0.37004 -0.30217,-0.93563 0.06785,-1.26824l7.70374,-6.92543c0.18501,-0.16628 0.41922,-0.24266 0.64848,-0.22986zM193.56792,145.02458c0.17274,0.00619 0.34606,0.06209 0.49691,0.17176l3.52531,2.56132c0.40241,0.29246 0.49091,0.85216 0.19843,1.25469c-0.29246,0.40262 -0.85175,0.49091 -1.25429,0.19843l-3.52531,-2.56132c-0.40262,-0.29246 -0.49132,-0.85178 -0.19886,-1.25431c0.18277,-0.25149 0.46985,-0.38122 0.75777,-0.37055zM286.45653,145.05734c0.28789,-0.00986 0.57474,0.11923 0.75738,0.37094c0.29212,0.40273 0.20344,0.96213 -0.19928,1.25431l-3.52727,2.559c-0.40273,0.29212 -0.96211,0.20344 -1.25431,-0.19928c-0.2921,-0.40275 -0.20302,-0.96251 0.19971,-1.25469l3.52686,-2.55902c0.15102,-0.10967 0.32408,-0.16493 0.49691,-0.17133zM190.14994,150.04106c0.17242,-0.01195 0.35052,0.02582 0.51203,0.11906l8.97122,5.17963c0.43089,0.24878 0.57747,0.79589 0.32869,1.22679c-0.24878,0.43089 -0.79589,0.57747 -1.22679,0.32869l-8.97122,-5.17961c-0.43089,-0.24878 -0.57747,-0.79589 -0.32869,-1.22679c0.1555,-0.26931 0.42737,-0.42848 0.71475,-0.44768zM289.85004,150.04123c0.28738,0.02008 0.55959,0.17837 0.71514,0.44768c0.24878,0.43089 0.10222,0.978 -0.32867,1.22679l-8.97162,5.17961c-0.43089,0.24878 -0.978,0.1022 -1.22679,-0.32869c-0.24878,-0.43089 -0.1022,-0.978 0.32869,-1.22679l8.97122,-5.17963c0.16158,-0.09345 0.33963,-0.13186 0.51203,-0.11906zM187.91421,155.46651l3.97958,1.77524c0.4544,0.20268 0.65736,0.73167 0.45466,1.1861c-0.20268,0.4544 -0.73167,0.65695 -1.1861,0.45425l-3.97994,-1.77524c-0.45443,-0.20268 -0.65699,-0.73167 -0.4543,-1.1861c0.15202,-0.34074 0.48765,-0.54109 0.83763,-0.53256c0.11665,0.00235 0.23496,0.02752 0.34847,0.07831zM293.28853,155.95846c0.20236,0.45455 -0.00051,0.98342 -0.45504,1.18569l-3.98075,1.77255c-0.45455,0.20236 -0.98361,-0.0009 -1.1861,-0.45545c-0.20236,-0.45455 0.0009,-0.98321 0.45545,-1.18569l3.98073,-1.77215c0.11366,-0.05057 0.23216,-0.07617 0.34887,-0.07831c0.34998,-0.00696 0.68514,0.19243 0.83684,0.53335zM185.26257,160.97692c0.11626,-0.00981 0.23686,0.00277 0.35506,0.04139l9.84954,3.20942c0.47318,0.15414 0.72965,0.65913 0.5756,1.1322c-0.15416,0.47297 -0.65915,0.72965 -1.1322,0.5756l-9.84956,-3.2094c-0.47318,-0.15416 -0.72965,-0.65913 -0.5756,-1.1322c0.1156,-0.35483 0.42833,-0.58784 0.77716,-0.61707zM294.75059,161.0152c0.34879,0.02959 0.66173,0.26295 0.77716,0.61784c0.15379,0.47318 -0.10357,0.97798 -0.57677,1.13182l-9.85148,3.20244c-0.4732,0.15381 -0.97798,-0.1032 -1.13182,-0.57638c-0.15381,-0.47318 0.10318,-0.97798 0.57638,-1.13182l9.85184,-3.20244c0.11831,-0.03926 0.23839,-0.05206 0.35468,-0.04139zM183.82767,166.84431c0.05974,0 0.12055,0.0064 0.18136,0.0192l4.26216,0.90584c0.48662,0.10344 0.79536,0.57845 0.69188,1.06516c-0.10346,0.48662 -0.57845,0.79536 -1.06514,0.69188l-4.26255,-0.90584c-0.48662,-0.10346 -0.79536,-0.57848 -0.69188,-1.06516c0.09051,-0.42586 0.46573,-0.71629 0.88414,-0.71202zM296.17438,166.85097c0.41837,-0.00354 0.79365,0.28617 0.88412,0.71202c0.10338,0.48671 -0.20558,0.96168 -0.69226,1.06516l-4.26216,0.90546c-0.48671,0.10338 -0.96166,-0.20558 -1.06514,-0.69226c-0.10338,-0.48671 0.20517,-0.9613 0.69186,-1.06478l4.26257,-0.90546c0.06081,-0.01067 0.12119,-0.01871 0.18093,-0.0192zM182.74154,172.74437c0.05953,-0.00565 0.12034,-0.00565 0.18221,0.00075l10.30187,1.08919c0.49482,0.05227 0.85114,0.49283 0.79886,0.98762c-0.05227,0.49482 -0.49283,0.85114 -0.98762,0.79886l-10.30189,-1.08919c-0.49479,-0.05227 -0.85073,-0.49283 -0.79846,-0.98762c0.04575,-0.43296 0.38856,-0.75973 0.80505,-0.79963zM297.26802,172.82176c0.41645,0.0405 0.75868,0.3678 0.80392,0.8008c0.05159,0.49488 -0.30518,0.93484 -0.80003,0.98647l-10.30304,1.07523c-0.49488,0.05168 -0.93484,-0.30515 -0.98647,-0.80003c-0.05159,-0.49486 0.30515,-0.93482 0.80003,-0.98645l10.30304,-1.07523c0.06188,-0.00715 0.12311,-0.00715 0.18264,-0.00075zM186.92465,178.78479c0.49755,0 0.89848,0.40053 0.89848,0.8981c0,0.49755 -0.40093,0.89808 -0.89848,0.89808h-4.35752c-0.49757,0 -0.89808,-0.40053 -0.89808,-0.89808c0,-0.49757 0.40051,-0.8981 0.89808,-0.8981zM297.43285,178.78479c0.49755,0 0.8981,0.40053 0.8981,0.8981c0,0.49755 -0.40055,0.89808 -0.8981,0.89808h-4.35752c-0.49755,0 -0.89808,-0.40053 -0.8981,-0.89808c0,-0.49757 0.40055,-0.8981 0.8981,-0.8981zM193.21356,183.68066c0.41645,0.04048 0.75905,0.36778 0.80428,0.80078c0.05159,0.49488 -0.30513,0.93484 -0.80001,0.98647l-10.30345,1.07523c-0.49486,0.05168 -0.93482,-0.30515 -0.98645,-0.80003c-0.05159,-0.49486 0.30513,-0.93482 0.80001,-0.98645l10.30345,-1.07523c0.06188,-0.00715 0.12268,-0.00715 0.18221,-0.00075zM286.78089,183.74431c0.05953,-0.00565 0.12076,-0.00565 0.18264,0.00075l10.30149,1.08919c0.49479,0.05227 0.85114,0.49283 0.79886,0.98762c-0.0523,0.49479 -0.49281,0.85114 -0.98762,0.79886l-10.30189,-1.08919c-0.49479,-0.05227 -0.85075,-0.49283 -0.79848,-0.98762c0.04575,-0.43296 0.38856,-0.75975 0.80507,-0.79965zM188.07782,189.81094c0.41839,-0.00352 0.79327,0.28617 0.88374,0.71204c0.10338,0.48669 -0.20517,0.96166 -0.69186,1.06514l-4.26255,0.90507c-0.48671,0.10338 -0.96168,-0.20517 -1.06516,-0.69188c-0.10335,-0.48671 0.20517,-0.96168 0.69188,-1.06516l4.26255,-0.90544c0.06081,-0.0128 0.12162,-0.01869 0.18136,-0.0192zM291.92107,189.82061c0.05974,0 0.12055,0.0064 0.18136,0.0192l4.26218,0.90584c0.4866,0.10344 0.79534,0.57886 0.69186,1.06555c-0.10344,0.48666 -0.57848,0.79498 -1.06514,0.6915l-4.26255,-0.90584c-0.48666,-0.10344 -0.79498,-0.57848 -0.6915,-1.06516c0.09051,-0.42586 0.46535,-0.7159 0.88374,-0.71164zM195.25551,193.35729c0.34881,0.02959 0.66175,0.26295 0.77718,0.61784c0.15381,0.47318 -0.10357,0.97798 -0.57677,1.13182l-9.85148,3.20244c-0.4732,0.15379 -0.97798,-0.10318 -1.13182,-0.57638c-0.15381,-0.47318 0.10318,-0.97798 0.57638,-1.13182l9.85184,-3.20242c0.11831,-0.03926 0.23837,-0.05206 0.35466,-0.04139zM284.73476,193.38925c0.11628,-0.00981 0.23686,0.00277 0.35506,0.04139l9.84954,3.2094c0.47318,0.15416 0.72986,0.65915 0.5756,1.13222c-0.15414,0.47297 -0.65913,0.72965 -1.1322,0.5756l-9.84954,-3.2094c-0.47318,-0.15416 -0.72965,-0.65913 -0.5756,-1.13222c0.1156,-0.35481 0.42831,-0.58784 0.77714,-0.61707zM191.4961,200.37152c0.34998,-0.00696 0.68554,0.19243 0.83725,0.53335c0.20236,0.45455 -0.00051,0.98342 -0.45504,1.18569l-3.98116,1.77217c-0.45453,0.20236 -0.98321,-0.00051 -1.18569,-0.45507c-0.20236,-0.45455 0.00051,-0.98342 0.45507,-1.18569l3.98112,-1.77253c0.11364,-0.05057 0.23176,-0.07574 0.34847,-0.07788zM288.48954,200.40568c0.11667,0.00235 0.23496,0.02752 0.34847,0.07831l3.97958,1.77526c0.4544,0.20268 0.65697,0.73167 0.45428,1.18608c-0.20268,0.4544 -0.73169,0.65697 -1.1861,0.45428l-3.97958,-1.77524c-0.4544,-0.20268 -0.65697,-0.73167 -0.45428,-1.18608c0.15202,-0.34077 0.48765,-0.54112 0.83763,-0.53258zM199.24713,202.35195c0.28738,0.02008 0.55921,0.17837 0.71475,0.44768c0.24876,0.43089 0.1022,0.97839 -0.32869,1.22717l-8.97122,5.17923c-0.43089,0.24878 -0.978,0.1022 -1.22679,-0.32869c-0.24878,-0.43089 -0.1022,-0.978 0.32869,-1.22679l8.97122,-5.17961c0.1616,-0.09345 0.33963,-0.13186 0.51203,-0.11906zM280.75324,202.35183c0.17242,-0.01195 0.35013,0.02582 0.51165,0.11906l8.97162,5.17961c0.43087,0.24878 0.57745,0.79589 0.32867,1.22679c-0.24878,0.43089 -0.79626,0.57747 -1.22717,0.32869l-8.97122,-5.17923c-0.43089,-0.24878 -0.57747,-0.79628 -0.32869,-1.22717c0.1555,-0.26931 0.42775,-0.42848 0.71514,-0.44768zM197.00944,209.95283c0.28792,-0.00986 0.57515,0.11963 0.75779,0.37134c0.29212,0.40273 0.20306,0.96213 -0.19971,1.25429l-3.52723,2.559c-0.40273,0.29231 -0.96211,0.20323 -1.25431,-0.1995c-0.2921,-0.40273 -0.20302,-0.96213 0.19971,-1.25431l3.52684,-2.559c0.15104,-0.10967 0.3241,-0.16536 0.49693,-0.17176zM282.96927,209.98309c0.17274,0.00619 0.34606,0.06252 0.49691,0.17219l3.52531,2.56132c0.40241,0.29246 0.49089,0.85178 0.19843,1.25431c-0.29246,0.40262 -0.85178,0.49132 -1.25431,0.19886l-3.52531,-2.56132c-0.40262,-0.29246 -0.49134,-0.85218 -0.19886,-1.25469c0.18279,-0.25149 0.46985,-0.38122 0.75777,-0.37055zM205.61749,210.59056c0.33266,0.37004 0.30259,0.93565 -0.06742,1.26826l-7.70413,6.92541c-0.37004,0.33264 -0.93563,0.30259 -1.26824,-0.06742c-0.33266,-0.37004 -0.30259,-0.93565 0.06742,-1.26826l7.70411,-6.92541c0.18503,-0.16628 0.41886,-0.24266 0.64808,-0.22986c0.22926,0.0122 0.45398,0.11229 0.62019,0.29728zM274.98134,210.31811c0.22926,-0.01203 0.4627,0.06382 0.64769,0.23024l7.6995,6.93085c0.3697,0.33287 0.39948,0.89846 0.06657,1.26824c-0.33289,0.36972 -0.89884,0.39951 -1.26865,0.06657l-7.69909,-6.93083c-0.3697,-0.33289 -0.39948,-0.89846 -0.06657,-1.26826c0.16645,-0.18488 0.39129,-0.2841 0.62055,-0.2969zM212.8026,217.06929c0.40219,0.29272 0.49027,0.85235 0.19758,1.25469l-6.09399,8.37702c-0.29269,0.40241 -0.85235,0.49051 -1.25469,0.19779c-0.40219,-0.29269 -0.49029,-0.85233 -0.19758,-1.25469l6.09399,-8.37702c0.18294,-0.25156 0.47028,-0.38043 0.75817,-0.36976c0.17274,0.00597 0.34567,0.0623 0.49652,0.17197zM267.64388,216.93498c0.28792,-0.00984 0.57476,0.11923 0.7574,0.37094l6.08274,8.38517c0.29208,0.40275 0.20304,0.96213 -0.19971,1.25429c-0.40275,0.2921 -0.96215,0.20304 -1.25431,-0.19971l-6.08274,-8.38515c-0.29205,-0.40275 -0.20302,-0.96213 0.19971,-1.25431c0.15104,-0.10967 0.3241,-0.16493 0.49693,-0.17133zM204.43928,218.22861c0.22928,-0.01201 0.46273,0.06382 0.64771,0.23024c0.36968,0.33291 0.39955,0.89889 0.06657,1.26865l-2.91598,3.23807c-0.33291,0.36987 -0.89848,0.39972 -1.26824,0.06678c-0.36983,-0.33294 -0.39931,-0.89889 -0.06636,-1.26865l2.91561,-3.23809c0.16647,-0.18488 0.39129,-0.2841 0.62055,-0.2969zM275.55521,218.23288c0.22926,0.01206 0.45413,0.11193 0.62055,0.29692l2.91523,3.23846c0.33298,0.36983 0.30323,0.93578 -0.06657,1.26865c-0.36983,0.33298 -0.93539,0.30326 -1.26829,-0.06657l-2.91521,-3.23886c-0.33276,-0.3698 -0.30304,-0.93539 0.06678,-1.26824c0.18488,-0.16645 0.41843,-0.24304 0.64769,-0.23024zM221.16488,221.90363c0.4544,0.2027 0.65699,0.73169 0.4543,1.18608l-4.22068,9.4604c-0.2027,0.45438 -0.73169,0.65697 -1.18608,0.45428c-0.4544,-0.20272 -0.65699,-0.73169 -0.4543,-1.1861l4.22071,-9.46038c0.15202,-0.34077 0.48724,-0.54112 0.83722,-0.53258c0.11667,0.00235 0.23532,0.02752 0.34883,0.07831zM259.12696,221.85134c0.34998,-0.0067 0.68535,0.19292 0.83684,0.53373l4.2075,9.4662c0.2021,0.45466 -0.00141,0.98325 -0.45583,1.18531c-0.45466,0.2021 -0.98363,-0.00143 -1.18569,-0.45583l-4.20748,-9.4662c-0.20212,-0.45466 0.00141,-0.98325 0.45581,-1.18531c0.11366,-0.05057 0.23214,-0.07574 0.34885,-0.07788zM213.39951,224.75022c0.17244,-0.01195 0.35052,0.02582 0.51203,0.11906c0.43091,0.24878 0.57747,0.79589 0.32871,1.22679l-2.17878,3.77377c-0.24876,0.43089 -0.79587,0.57747 -1.22676,0.32869c-0.43091,-0.24878 -0.57747,-0.79589 -0.32871,-1.22679l2.17878,-3.77377c0.15546,-0.26931 0.42737,-0.42848 0.71473,-0.44768zM266.60044,224.75035c0.28738,0.02008 0.55961,0.17837 0.71516,0.44768l2.17876,3.77377c0.24878,0.43089 0.1022,0.978 -0.32871,1.22679c-0.43087,0.24876 -0.97798,0.1022 -1.22676,-0.32869l-2.17876,-3.77377c-0.24878,-0.43089 -0.1022,-0.978 0.32869,-1.22679c0.16158,-0.09324 0.33923,-0.13186 0.51163,-0.11906zM230.21212,224.88614c0.05974,0 0.12055,0.0064 0.18136,0.0192c0.48662,0.10338 0.79536,0.57845 0.69188,1.06514l-2.15277,10.13327c-0.1034,0.48662 -0.57845,0.79536 -1.06516,0.69188c-0.48662,-0.10338 -0.79536,-0.57845 -0.69188,-1.06514l2.15279,-10.13327c0.09045,-0.42588 0.46535,-0.71593 0.88374,-0.71166zM249.75618,224.89173c0.41839,-0.00324 0.79312,0.28651 0.88337,0.71245l2.14581,10.1341c0.10303,0.48677 -0.2059,0.9617 -0.69267,1.06476c-0.48679,0.10303 -0.9617,-0.2059 -1.06476,-0.69267l-2.14545,-10.13483c-0.10303,-0.48677 0.20592,-0.96132 0.69269,-1.06437c0.06081,-0.0128 0.12119,-0.01873 0.18093,-0.0192zM240.89809,226.81218v10.35924c0,0.49757 -0.40053,0.8981 -0.8981,0.8981c-0.49755,0 -0.8981,-0.40053 -0.8981,-0.8981v-10.35924c0,-0.49757 0.40055,-0.8981 0.8981,-0.8981c0.49757,0 0.8981,0.40053 0.8981,0.8981zM223.51418,229.26157c0.11628,-0.00981 0.23647,0.00299 0.35468,0.04139c0.47309,0.15384 0.7302,0.65864 0.57636,1.13182l-1.34693,4.14394c-0.15384,0.47307 -0.65864,0.73061 -1.13182,0.57677c-0.47312,-0.15384 -0.73022,-0.65864 -0.57638,-1.13184l1.34695,-4.14432c0.11535,-0.35489 0.42835,-0.58818 0.77714,-0.61784zM256.47882,229.26373c0.34881,0.02964 0.66135,0.26293 0.77678,0.61784l1.34693,4.14432c0.15375,0.4732 -0.10357,0.9776 -0.57677,1.13143c-0.4732,0.15375 -0.97798,-0.10316 -1.13182,-0.57638l-1.34657,-4.1443c-0.15373,-0.47322 0.10359,-0.978 0.57679,-1.13184c0.11829,-0.03905 0.23837,-0.05185 0.35466,-0.04118zM234.36258,231.57185c0.05953,-0.00565 0.12034,-0.00565 0.18221,0.00075c0.49479,0.05206 0.85128,0.4924 0.79922,0.98724l-0.45543,4.33347c-0.05206,0.49484 -0.4924,0.85133 -0.98724,0.79927c-0.49484,-0.05206 -0.85133,-0.49202 -0.79927,-0.98686l0.45545,-4.33385c0.04549,-0.43298 0.38858,-0.75992 0.80507,-0.80003zM245.60123,231.57605c0.41647,0.04045 0.75909,0.3678 0.80432,0.80082l0.45233,4.33385c0.05168,0.49486 -0.30518,0.93484 -0.80003,0.98647c-0.49488,0.05168 -0.93484,-0.30479 -0.98647,-0.79965l-0.45272,-4.33426c-0.05168,-0.49486 0.30515,-0.93482 0.80001,-0.98645c0.06188,-0.00715 0.12311,-0.00715 0.18264,-0.00075z" fill="#f4f2f3" stroke="none" stroke-width="1" stroke-linecap="butt" stroke-linejoin="miter"/><path d="M247.33748,187.55122l-45.44925,33.66375l31.0675,-48.90908l49.13636,-28.54837z" fill="#000000" stroke="none" stroke-width="1" stroke-linecap="butt" stroke-linejoin="miter" opacity="0.409"/><path d="M247.04207,187.05604l-14.08413,-14.74935l49.96176,-33.60928z" fill="#ff5150" stroke="none" stroke-width="1" stroke-linecap="butt" stroke-linejoin="miter"/><path d="M197.08028,220.66531l35.87763,-48.35863l14.08413,14.74935z" fill="#f1f1f1" stroke="none" stroke-width="1" stroke-linecap="butt" stroke-linejoin="miter"/><path d="M282.91968,138.69739l-35.87764,48.35863l-49.96175,33.60931z" fill="#000000" stroke="none" stroke-width="1" stroke-linecap="butt" stroke-linejoin="miter" opacity="0.243"/></g></g></svg>